<svg width="1280" height="640" viewBox="0 0 1280 640" fill="none" xmlns="http://www.w3.org/2000/svg">
<path d="M1114.09 452.811L1115.3 457.347L1097.22 462.194L1123.95 561.978L1223.44 535.32L1196.71 435.535L1178.62 440.382L1177.4 435.847L1168.36 438.27L1169.57 442.806L1124.35 454.923L1123.13 450.388L1114.09 452.811ZM1108.69 468.842L1117.74 466.418L1118.95 470.954L1128 468.53L1126.78 463.995L1172 451.877L1173.22 456.413L1182.26 453.989L1181.05 449.454L1190.09 447.03L1192.52 456.102L1111.12 477.913L1108.69 468.842ZM1113.55 486.984L1194.95 465.173L1211.97 528.672L1130.57 550.483L1113.55 486.984ZM1176.39 481.238L1158.92 511.591L1145.83 504.009L1141.08 512.27L1158.29 522.242L1162.38 524.489L1164.79 520.5L1184.63 486.016L1176.39 481.238Z" fill="#1FAECE"/>
<path d="M327 210L303.76 225.189L266.576 249.453L278.475 228.152L260.813 237.413L250.402 243.155C241.725 247.971 233.421 252.725 225.488 257.418C199.708 272.73 182.107 284.955 172.688 294.093C166.366 300.39 162.028 307.799 159.673 316.32C157.442 324.84 157.442 333.299 159.673 341.696C162.028 350.093 166.366 357.378 172.688 363.552H172.873C179.319 369.85 186.755 374.11 195.184 376.333C203.612 378.556 211.978 378.556 220.283 376.333C228.711 374.11 236.024 369.85 242.221 363.552V363.367C250.649 354.97 261.619 340.029 275.129 318.542C281.946 307.676 287.957 297.55 293.163 288.165L301.529 273.533L285.912 279.83L281.078 281.682L312.127 233.338L327 210ZM287.027 250.379L260.999 290.944L250.959 306.688L273.827 297.427L272.154 300.39C269.923 304.095 267.506 308.046 264.903 312.245C251.393 333.731 241.044 348.055 233.855 355.217C229.145 360.157 223.567 363.491 217.122 365.219C210.801 366.825 204.418 366.825 197.972 365.219C191.651 363.491 186.012 360.157 181.054 355.217H180.868C175.91 350.525 172.564 345.03 170.828 338.732C169.217 332.311 169.279 325.951 171.014 319.654C172.75 313.233 176.096 307.552 181.054 302.613C185.764 298.044 193.077 292.364 202.992 285.572C211.421 279.892 220.964 273.903 231.624 267.605C237.821 263.901 243.399 260.69 248.356 257.974L244.824 264.642L233.297 285.572L253.19 272.421L287.027 250.379ZM205.967 307.244C201.629 307.244 197.601 308.293 193.882 310.393C190.288 312.492 187.437 315.394 185.33 319.098C183.223 322.679 182.169 326.631 182.169 330.953C182.169 335.275 183.223 339.288 185.33 342.992C187.437 346.573 190.288 349.413 193.882 351.513C197.601 353.612 201.629 354.662 205.967 354.662C210.305 354.662 214.271 353.612 217.866 351.513C221.584 349.413 224.497 346.573 226.604 342.992C228.711 339.288 229.765 335.275 229.765 330.953C229.765 326.631 228.711 322.679 226.604 319.098C224.497 315.394 221.584 312.492 217.866 310.393C214.271 308.293 210.305 307.244 205.967 307.244ZM205.967 319.098C209.561 319.098 212.412 320.209 214.519 322.432C216.75 324.531 217.866 327.372 217.866 330.953C217.866 334.534 216.75 337.436 214.519 339.658C212.412 341.757 209.561 342.807 205.967 342.807C202.373 342.807 199.46 341.757 197.229 339.658C195.122 337.436 194.068 334.534 194.068 330.953C194.068 327.372 195.122 324.531 197.229 322.432C199.46 320.209 202.373 319.098 205.967 319.098Z" fill="#1FAECE"/>
<path d="M75.2515 42.7549C75.631 45.6019 74.9576 48.1599 73.2313 50.429C71.5958 52.5787 69.3617 53.8424 66.529 54.22L61.4931 54.8913C57.8211 55.3808 54.5903 56.7773 51.8007 59.0808C48.9971 61.2789 46.8549 64.0328 45.3741 67.3423C43.9981 70.6379 43.5561 74.1309 44.0481 77.8214C44.54 81.5119 45.8816 84.7671 48.0728 87.5872C50.3689 90.3933 53.1647 92.5425 56.4602 94.0349C59.7417 95.4218 63.2185 95.8705 66.8905 95.381L72.7133 94.6048C72.5261 97.2053 72.6011 99.7709 72.9385 102.302L81.372 165.567L91.4438 164.224L83.0104 100.959C82.3357 95.8977 82.9237 91.0974 84.7746 86.5581C86.7162 81.8993 89.6237 78.0776 93.4971 75.093C97.4613 71.989 101.961 70.1013 106.997 69.43C111.509 68.8286 115.839 69.2709 119.988 70.7568L118.533 59.8436C114.244 58.9128 109.949 58.7342 105.648 59.3076C98.5137 60.2586 92.2024 62.9779 86.7142 67.4656C81.3309 71.9393 77.4207 77.4507 74.9835 83.9999L65.5412 85.2586C62.7085 85.6362 60.1689 85.0089 57.9225 83.3767C55.767 81.625 54.4995 79.3257 54.1199 76.4788C53.7404 73.6318 54.3684 71.1335 56.0039 68.9838C57.7302 66.7147 60.0097 65.3913 62.8425 65.0137L67.8784 64.3424C71.5504 63.8529 74.7882 62.5091 77.5918 60.311C80.3814 58.0075 82.4641 55.2079 83.8401 51.9124C85.3209 48.6028 85.8154 45.1028 85.3234 41.4123L75.2515 42.7549ZM121.988 47.3101L126.31 79.7335C126.872 83.9512 128.539 87.6459 131.311 90.8178C134.083 93.9897 137.491 96.3257 141.535 97.8256C145.684 99.3115 150.014 99.7538 154.525 99.1524C159.037 98.551 163.047 96.9969 166.557 94.49C170.172 91.9691 172.902 88.8151 174.746 85.0278C176.59 81.2405 177.231 77.2381 176.669 73.0204L172.347 40.597L157.656 54.1455L156.669 53.955C154.906 53.5461 153.538 53.2992 152.566 53.2142C151.041 52.9882 149.649 52.9591 148.39 53.127C147.131 53.2948 145.795 53.6875 144.383 54.3051C143.467 54.6418 142.211 55.2384 140.617 56.0948L139.715 56.537L130.594 51.7968L121.988 47.3101ZM149.739 63.2494C152.572 62.8718 155.279 63.1548 157.861 64.0984L160.726 65.1653L164.868 61.3936L166.597 74.363C167.047 77.7371 165.972 80.8853 163.371 83.8075C160.876 86.7157 157.478 88.4566 153.176 89.03C148.875 89.6034 145.086 88.8206 141.811 86.6816C138.641 84.5286 136.831 81.765 136.382 78.3909L134.653 65.4215L139.638 67.9764L142.124 66.1963C144.368 64.6093 146.907 63.627 149.739 63.2494ZM117.925 93.7291C113.413 94.3305 109.371 96.0498 105.799 98.887C102.212 101.619 99.5245 105.089 97.7364 109.298C96.0533 113.493 95.5139 117.858 96.1183 122.392L101.516 162.881L111.588 161.539L106.19 121.049C105.628 116.831 106.619 113.051 109.163 109.707C111.707 106.363 115.077 104.411 119.274 103.852C123.471 103.292 127.234 104.293 130.566 106.854C133.897 109.414 135.844 112.804 136.406 117.021L141.803 157.511L151.875 156.168L146.478 115.679C145.845 110.934 143.996 106.673 140.93 102.896C135.689 101.234 131.305 98.3844 127.777 94.3474C124.566 93.4877 121.282 93.2816 117.925 93.7291ZM165.061 101.289C161.949 102.777 158.662 103.752 155.2 104.214L161.947 154.826L172.019 153.483L165.061 101.289Z" fill="#1FAECE"/>
<path d="M866.729 471.62C865.767 472.121 865.252 472.929 865.185 474.043C865.201 475.013 865.657 475.805 866.552 476.417L877.674 485.861C873.956 490.633 871.449 496.055 870.151 502.127C868.967 508.168 869.182 514.201 870.796 520.224L885.411 574.77C886.294 578.065 888.875 580.419 893.153 581.83L897.446 597.853C898.451 601.604 900.611 604.435 903.926 606.348C907.386 608.344 910.992 608.84 914.744 607.834C918.496 606.829 921.314 604.612 923.198 601.184C925.226 597.839 925.738 594.292 924.733 590.542L921.079 576.905L931.994 573.981L935.648 587.617C936.653 591.367 938.813 594.199 942.129 596.112C945.588 598.108 949.194 598.603 952.946 597.598C956.698 596.593 959.516 594.376 961.4 590.948C963.429 587.603 963.941 584.056 962.936 580.306L958.642 564.283C961.641 560.921 962.699 557.593 961.816 554.297L947.2 499.751C945.587 493.728 942.7 488.412 938.54 483.802C934.494 479.162 929.668 475.705 924.062 473.431L928.972 459.692C929.411 458.6 929.209 457.619 928.366 456.749C927.638 455.848 926.705 455.55 925.568 455.854L925.056 455.991C924.321 456.432 923.874 457.039 923.716 457.812L918.636 471.597C912.098 469.938 905.475 470.007 898.767 471.805C892.059 473.602 886.289 476.854 881.456 481.559L870.164 472.161C869.466 471.374 868.605 471.117 867.582 471.391L866.729 471.62ZM901.69 482.714C908.285 480.947 914.647 481.496 920.776 484.36C926.875 487.11 931.387 491.443 934.312 497.358L880.761 511.707C880.337 505.122 882.078 499.114 885.985 493.682C889.861 488.137 895.096 484.481 901.69 482.714ZM892.237 491.093C890.759 491.489 889.604 492.408 888.771 493.849C888.022 495.146 887.845 496.533 888.241 498.01C888.637 499.488 889.499 500.657 890.826 501.52C892.237 502.238 893.682 502.399 895.16 502.003C896.638 501.607 897.752 500.76 898.501 499.463C899.333 498.022 899.552 496.563 899.156 495.086C898.76 493.608 897.857 492.511 896.446 491.793C895.118 490.93 893.715 490.697 892.237 491.093ZM914.067 485.244C912.589 485.64 911.433 486.559 910.601 488C909.852 489.297 909.675 490.684 910.071 492.161C910.467 493.638 911.329 494.808 912.656 495.67C914.067 496.388 915.512 496.549 916.99 496.153C918.468 495.757 919.582 494.911 920.331 493.614C921.163 492.173 921.382 490.714 920.986 489.236C920.59 487.759 919.687 486.661 918.276 485.943C916.948 485.081 915.545 484.848 914.067 485.244ZM852.962 519.156L867.577 573.702L878.492 570.778L863.877 516.231L852.962 519.156ZM951.196 492.834L965.812 547.38L976.727 544.456L962.111 489.909L951.196 492.834ZM883.172 522.754L937.747 508.13L950.901 557.222L945.444 558.684L952.021 583.23C952.234 584.026 952.132 584.784 951.716 585.504C951.383 586.081 950.819 586.475 950.023 586.689C949.227 586.902 948.484 586.857 947.794 586.555C947.187 586.109 946.776 585.488 946.563 584.693L939.986 560.147L907.241 568.921L913.818 593.467C914.032 594.262 913.93 595.02 913.514 595.74C913.181 596.317 912.616 596.712 911.82 596.925C911.025 597.138 910.281 597.094 909.591 596.792C908.984 596.345 908.574 595.724 908.361 594.929L901.784 570.383L896.326 571.845L883.172 522.754Z" fill="#1FAECE"/>
<path d="M378.537 437.703C373.985 438.597 369.709 440.585 365.708 443.667C361.8 446.609 358.637 450.252 356.217 454.594L356.251 454.769C354.229 458.671 352.861 462.505 352.145 466.271C351.309 471.269 351.686 475.969 353.277 480.37L351.599 480.155C345.679 479.021 340.677 478.856 336.592 479.658C329.239 481.102 322.986 484.444 317.833 489.686C312.68 494.928 309.05 501.442 306.942 509.227C304.951 516.991 304.813 525.236 306.526 533.963C308.126 542.109 311.009 550.003 315.176 557.644C318.973 564.633 323.542 570.927 328.884 576.525C333.901 581.704 339.121 585.755 344.544 588.678C350.502 591.859 355.815 592.991 360.484 592.074C362.818 591.616 365.084 590.808 367.281 589.652C368.613 589.028 370.227 587.986 372.122 586.526L372.613 586.248C374.32 585.067 375.618 584.268 376.506 583.852C378.049 583.066 379.754 582.489 381.621 582.123C383.255 581.802 384.807 581.678 386.276 581.752C387.162 581.941 388.49 582.224 390.261 582.602L391.205 582.779C393.605 583.274 395.552 583.617 397.044 583.808C399.632 584.025 402.151 583.892 404.602 583.411C409.855 582.38 414.498 579.172 418.531 573.787C421.416 569.958 424.06 564.907 426.465 558.633C428.162 554.312 429.604 549.618 430.791 544.55C431.217 543.017 431.562 541.378 431.826 539.634L432.005 538.692C432.218 537.926 432.314 537.181 432.294 536.46L432.453 531.716L427.874 530.621C424.565 529.82 421.376 528.392 418.305 526.336C413.118 522.762 409.919 517.891 408.708 511.724C407.543 505.789 408.452 500.233 411.435 495.054C412.516 493.15 413.654 491.537 414.849 490.215L420.995 484.476L416.918 480.382C411.762 475.11 405.525 471.742 398.207 470.278C393.429 469.404 388.764 469.413 384.212 470.307C383.045 470.536 381.584 471.125 379.831 472.074L377.483 473.079C377.765 472.661 378.257 472.081 378.96 471.338C379.967 470.295 380.647 469.436 380.999 468.763L381.106 468.379L381.281 468.345C383.653 464.374 385.175 460.087 385.847 455.484C386.519 450.88 386.292 446.332 385.168 441.84L383.789 436.672L378.537 437.703ZM374.421 451.926C374.193 456.322 373.152 459.971 371.297 462.873L371.015 463.29C369.557 466.357 367.05 469.024 363.496 471.293C363.746 467.014 364.659 463.33 366.235 460.241L366.375 460.032C368.207 457.014 370.889 454.312 374.421 451.926ZM338.785 490.829C341.236 490.348 344.792 490.556 349.454 491.453L351.551 491.948C353.695 492.373 355.315 492.599 356.411 492.625C358.276 492.863 360.026 492.822 361.66 492.501C363.41 492.157 365.115 491.581 366.775 490.771C367.757 490.216 369.23 489.383 371.193 488.272L373.789 486.675C378.582 483.921 382.787 482.189 386.405 481.478C388.273 481.112 390.71 481.177 393.717 481.674C397.492 482.383 400.974 483.754 404.161 485.787L403.423 486.657C402.649 487.655 402.039 488.56 401.592 489.373C397.176 497.129 395.813 505.313 397.504 513.924C398.463 518.811 400.369 523.271 403.222 527.304C405.564 530.59 408.422 533.413 411.794 535.772C413.888 537.174 416.227 538.286 418.813 539.107L420.175 539.565L419.711 541.831C418.595 546.643 417.307 550.884 415.846 554.555C413.936 559.643 411.773 563.754 409.358 566.887C406.943 570.02 404.626 571.804 402.409 572.24C401.008 572.515 399.632 572.604 398.279 572.507C397.533 572.412 396.147 572.14 394.119 571.692L393.735 571.586C391.195 570.997 389.12 570.619 387.512 570.452C384.807 570.258 382.112 570.424 379.428 570.951C374.876 571.845 370.307 573.89 365.723 577.087L365.232 577.364C363.641 578.523 362.46 579.299 361.689 579.692C360.707 580.247 359.574 580.651 358.29 580.903C357.473 581.063 356.307 580.99 354.792 580.683C353.255 580.26 351.601 579.557 349.833 578.575C345.62 576.26 341.389 572.922 337.138 568.56C332.563 563.778 328.585 558.335 325.205 552.231C321.593 545.568 319.091 538.687 317.697 531.589C316.303 524.49 316.353 517.954 317.847 511.981C319.153 506.286 321.633 501.63 325.286 498.012C329.033 494.255 333.533 491.86 338.785 490.829Z" fill="#1FAECE"/>
<path d="M145.831 429.835L91.6691 523.757L100.855 526.173L155.017 432.25L145.831 429.835ZM97.9156 424.148L56.0302 457.383L53.3028 459.585L74.7115 512.384L83.6109 508.885L64.7848 462.604L103.943 431.571L97.9156 424.148ZM171.975 443.624L163.075 447.122L181.901 493.403L142.743 524.436L148.77 531.86L193.383 496.423L192.092 493.164L171.975 443.624Z" fill="#1FAECE"/>
<path d="M1097.37 36.7357C1094.18 35.8808 1091.03 36.0577 1087.93 37.2664C1084.93 38.5018 1082.58 40.5018 1080.87 43.2665L1068.37 63.591L1059.95 57.9511L1054.54 66.165L1063.12 71.8449L1057.39 81.2609C1057.15 81.7351 1056.98 82.1725 1056.88 82.5732L1046.57 121.039C1046.22 122.341 1046.36 123.613 1046.99 124.855C1047.74 126.024 1048.77 126.782 1050.07 127.129L1064.42 130.976L1067.36 126.609L1140.64 146.244L1140.99 151.493L1155.35 155.34C1156.65 155.687 1157.86 155.53 1159 154.869C1160.27 154.135 1161.08 153.116 1161.42 151.814L1171.73 113.348C1171.84 112.948 1171.91 112.484 1171.94 111.956L1171.69 100.937L1181.96 100.306L1181.38 90.4896L1171.26 91.1605L1170.6 67.3097C1170.51 64.0641 1169.42 61.1424 1167.34 58.5446C1165.36 55.9735 1162.77 54.2605 1159.58 53.4056L1097.37 36.7357ZM1094.79 46.3521L1157.01 63.022C1158.1 63.3159 1158.96 63.9203 1159.57 64.8352C1160.3 65.6766 1160.68 66.6383 1160.72 67.7201L1161.33 89.9482L1077.58 67.5079L1089.23 48.5657C1089.8 47.6442 1090.56 46.9897 1091.52 46.6024C1092.6 46.1417 1093.7 46.0582 1094.79 46.3521ZM1072.16 76.3629L1161.6 100.326L1161.92 111.685L1154.43 139.633L1058.72 113.987L1066.21 86.0393L1072.16 76.3629ZM1079.7 83.5353C1077.71 83.001 1075.82 83.2481 1074.05 84.2765C1072.28 85.3048 1071.13 86.8207 1070.59 88.8242C1070.05 90.8276 1070.29 92.7175 1071.31 94.4939C1072.33 96.2703 1073.84 97.4256 1075.83 97.9599C1077.83 98.4942 1079.71 98.2472 1081.48 97.2188C1083.25 96.1904 1084.41 94.6745 1084.95 92.6711C1085.48 90.6677 1085.24 88.7778 1084.22 87.0014C1083.2 85.225 1081.69 84.0696 1079.7 83.5353ZM1151.48 102.77C1149.49 102.236 1147.61 102.483 1145.84 103.511C1144.06 104.539 1142.91 106.055 1142.37 108.059C1141.84 110.062 1142.08 111.952 1143.1 113.728C1144.12 115.505 1145.63 116.66 1147.62 117.194C1149.61 117.729 1151.5 117.482 1153.27 116.453C1155.04 115.425 1156.19 113.909 1156.73 111.906C1157.27 109.902 1157.03 108.012 1156.01 106.236C1154.99 104.46 1153.48 103.304 1151.48 102.77ZM1092.58 102.448L1082.74 115.27L1093.06 118.035L1096.44 113.787L1121.86 120.6L1122.67 125.969L1132.99 128.734L1130.87 112.706L1092.58 102.448Z" fill="#1FAECE"/>
<path d="M1132.93 210L1109 287.385L1186.39 311.312L1210.31 233.927L1132.93 210ZM1137.79 219.21L1165.93 227.911L1157.23 256.051L1129.09 247.35L1137.79 219.21ZM1172.96 230.086L1201.1 238.787L1192.4 266.927L1164.26 258.226L1172.96 230.086ZM1149.68 230.596L1134.78 241.403L1155.88 247.928L1149.68 230.596ZM1177.82 239.296L1173.47 253.366L1187.54 257.717L1191.89 243.646L1177.82 239.296ZM1126.91 254.385L1155.05 263.086L1146.35 291.226L1118.21 282.526L1126.91 254.385ZM1162.09 265.261L1190.23 273.962L1181.53 302.102L1153.39 293.401L1162.09 265.261ZM1175.07 273.129L1164.77 281.506L1168.54 294.234L1178.84 285.857L1175.07 273.129ZM1138.81 265.771C1136.83 265.159 1134.93 265.334 1133.1 266.296C1131.38 267.207 1130.21 268.652 1129.6 270.631C1128.98 272.609 1129.12 274.499 1130.01 276.299C1131 278.048 1132.48 279.229 1134.46 279.841C1136.43 280.453 1138.29 280.303 1140.01 279.392C1141.84 278.43 1143.05 276.96 1143.67 274.981C1144.28 273.002 1144.09 271.138 1143.11 269.389C1142.22 267.589 1140.78 266.383 1138.81 265.771Z" fill="#1FAECE"/>
<path fill-rule="evenodd" clip-rule="evenodd" d="M746.578 137.564C741.783 134.629 736.197 133 730.379 133L549.462 133C543.644 133 538.058 134.629 533.263 137.564C528.929 140.217 525.241 143.937 522.612 148.487L432.154 305.013C429.216 310.096 427.837 315.805 428.015 321.475C428.174 326.496 429.553 331.487 432.154 335.987L522.612 492.513C525.241 497.063 528.929 500.783 533.263 503.436C538.058 506.371 543.644 508 549.462 508L730.379 508C736.197 508 741.783 506.371 746.578 503.436C750.912 500.783 754.6 497.063 757.229 492.513L847.687 335.987C850.288 331.487 851.668 326.496 851.826 321.475C852.004 315.805 850.625 310.096 847.687 305.013L757.229 148.487C754.6 143.937 750.912 140.217 746.578 137.564ZM639.522 223.889H544.321V417.443H639.522V369.268C639.721 395.561 661.096 416.814 687.436 416.814C713.899 416.814 735.352 395.362 735.352 368.899C735.352 342.435 713.899 320.983 687.436 320.983C661.096 320.983 639.721 342.236 639.522 368.529V273.437C639.721 299.729 661.096 320.983 687.436 320.983C713.899 320.983 735.352 299.53 735.352 273.067C735.352 246.604 713.899 225.151 687.436 225.151C661.096 225.151 639.721 246.404 639.522 272.697V223.889Z" fill="#1FAECE"/>
<path d="M361.897 48.5516C351.985 49.3735 342.946 52.6162 334.779 58.2796C326.89 63.8242 320.858 70.9407 316.685 79.6292C312.439 88.6113 310.727 98.0546 311.548 107.959C312.204 115.864 314.452 123.301 318.292 130.27C322.006 136.866 326.935 142.498 333.08 147.167C339.225 151.835 346.018 155.06 353.459 156.84C354.722 157.023 355.615 156.805 356.14 156.186C356.759 155.56 357.034 154.818 356.963 153.961L356.05 144.687C351.649 146.011 347.777 146.188 344.434 145.219C342.068 144.456 340.139 143.177 338.646 141.383C337.892 140.391 337.341 139.526 336.992 138.788C335.722 136.208 334.21 134.176 332.456 132.691C331.63 131.993 330.872 131.528 330.181 131.298C328.061 130.035 327.454 129.079 328.36 128.428C328.813 128.103 329.472 127.952 330.338 127.976C332.633 127.882 334.809 128.661 336.865 130.312C337.897 131.185 338.687 132.031 339.234 132.848C341.631 136.293 344.656 138.056 348.309 138.137C350.708 138.13 353.099 137.452 355.482 136.104C355.69 132.826 356.68 130.299 358.452 128.522C350.852 128.289 344.959 126.668 340.775 123.659C335.17 119.713 331.973 112.978 331.183 103.454C330.709 97.7402 332.209 92.6776 335.682 88.2663C334.896 86.8931 334.377 85.2581 334.123 83.3613C333.672 80.2343 333.932 77.0005 334.902 73.6598L335.748 73.4458C336.606 73.3747 337.567 73.3909 338.631 73.4944C340.092 73.7568 341.665 74.2018 343.348 74.8293C345.619 75.5999 348.013 76.6959 350.53 78.1174C354.811 76.5158 359.335 75.5174 364.1 75.1223C368.866 74.7272 373.492 74.9669 377.979 75.8414C382.118 72.5256 385.776 70.3524 388.954 69.3218C390.645 68.8939 391.88 68.7435 392.659 68.8708C394.166 72.0061 394.955 75.153 395.025 78.3116C395.087 80.2242 394.892 81.9185 394.439 83.3944C398.495 87.1813 400.76 91.9318 401.234 97.646C402.024 107.17 399.932 114.343 394.958 119.166C391.422 122.816 385.921 125.333 378.455 126.72C379.582 127.585 380.546 128.8 381.348 130.363C382.26 132.11 382.819 134.221 383.024 136.697L384.125 151.708C384.196 152.565 384.541 153.256 385.161 153.78C385.875 154.296 386.888 154.356 388.198 153.96C395.244 150.978 401.366 146.683 406.562 141.074C411.854 135.457 415.789 129.09 418.365 121.972C421.006 114.465 421.998 106.76 421.343 98.8553C420.521 88.9509 417.278 79.9185 411.611 71.7582C406.063 63.8758 398.942 57.8498 390.248 53.6803C381.259 49.4393 371.809 47.7298 361.897 48.5516Z" fill="#1FAECE"/>
<path d="M894.536 34.9291C892.031 34.2581 889.662 34.5676 887.428 35.8577C885.311 37.0798 883.917 38.943 883.246 41.4473L883.087 42.5976C877.638 42.5292 872.425 43.6177 867.449 45.8632C862.474 48.1087 858.18 51.3323 854.569 55.534C850.983 59.643 848.457 64.4336 846.991 69.9058L836.254 109.974C835.906 111.272 835.203 112.227 834.145 112.838C833.086 113.449 831.908 113.581 830.609 113.233L826.157 112.04L823.772 120.944L855.77 129.518C854.791 130.946 854.115 132.355 853.743 133.746C852.773 137.364 853.239 140.819 855.141 144.112C857.11 147.522 859.903 149.712 863.52 150.681C867.137 151.65 870.605 151.138 873.922 149.144C877.308 147.268 879.485 144.521 880.455 140.904C880.827 139.513 880.947 137.954 880.813 136.228L912.812 144.802L915.197 135.898L910.745 134.705C909.447 134.357 908.492 133.654 907.881 132.596C907.27 131.537 907.138 130.359 907.486 129.06L917.887 90.2445C919.353 84.7723 919.586 79.2676 918.584 73.7305C917.7 68.1256 915.69 63.0141 912.553 58.3961C909.417 53.7781 905.438 50.0776 900.616 47.2946L901.054 46.2189C901.725 43.7147 901.403 41.3917 900.088 39.25C898.891 37.0404 897.04 35.6001 894.536 34.9291ZM887.816 52.2152C888.094 52.2898 888.512 52.4016 889.068 52.5507L890.599 52.9608C895.279 54.4137 899.266 56.973 902.558 60.6387C905.875 64.2116 908.075 68.4295 909.158 73.2925C910.334 78.1803 910.275 83.0357 908.983 87.8587L898.582 126.675C898.21 128.066 898.09 129.624 898.224 131.35L843.131 116.588C844.11 115.16 844.786 113.751 845.158 112.36L855.895 72.2916C857.137 67.6541 859.347 63.6734 862.524 60.3495C865.819 56.9577 869.69 54.5656 874.139 53.173C878.613 51.6877 883.172 51.3684 887.816 52.2152ZM868.292 132.873C869.59 133.221 870.545 133.924 871.156 134.983C871.767 136.041 871.899 137.22 871.551 138.518C871.228 139.724 870.524 140.679 869.441 141.382C868.383 141.993 867.204 142.125 865.906 141.777C864.7 141.454 863.745 140.751 863.041 139.668C862.455 138.516 862.324 137.338 862.647 136.132C862.995 134.834 863.698 133.879 864.756 133.268C865.907 132.682 867.086 132.55 868.292 132.873Z" fill="#1FAECE"/>
<path d="M1065 318.691L1010.31 313.005L988 263L965.688 313.005L911 318.691L951.765 355.483L940.525 409L988 381.573L1035.64 409L1024.24 355.483L1065 318.691Z" fill="#1FAECE"/>
</svg>
